<svg xmlns="http://www.w3.org/2000/svg" width="157.209" height="186.258" viewBox="0 0 157.209 186.258"><g transform="translate(0 0)"><path d="M0,19.131A28.831,28.831,0,0,1,27.136,0H37.388a26.174,26.174,0,0,0,8.759,6.281A26.174,26.174,0,0,0,56.693,8.5,26.174,26.174,0,0,0,67.24,6.281,26.174,26.174,0,0,0,76,0H86.213a28.844,28.844,0,0,1,27.175,19.131Q56.669,55.748,0,19.131Z" transform="translate(21.917 73.17)" fill="#90b4ce"/><path d="M60.8,30.4A30.4,30.4,0,0,0,0,30.4C0,47.188,13.622,67.492,30.41,67.492S60.8,47.188,60.8,30.4Z" transform="translate(48.2 4.094)" fill="#90b4ce"/><path d="M44.764,19.12c-2.984,1.928-5.995,3.724-8.979,5.335A28.887,28.887,0,0,0,8.715,5.6H0A26.43,26.43,0,0,0,7.368,0h10.22A28.807,28.807,0,0,1,44.764,19.12Z" transform="translate(90.542 73.18)" fill="#7b99af"/><path d="M50.812,30.4c0,14.05-9.534,30.582-22.474,35.573a42.783,42.783,0,0,0,9.793-13.615,42.783,42.783,0,0,0,3.807-16.333A30.432,30.432,0,0,0,11.514,5.6,29.843,29.843,0,0,0,0,7.869,30.4,30.4,0,0,1,50.812,30.4Z" transform="translate(58.19 4.095)" fill="#7b99af"/><path d="M58,40.015q-28.776,0-57.4-18.452A1.32,1.32,0,0,1,.077,20.01,30.228,30.228,0,0,1,28.456,0H38.708a1.32,1.32,0,0,1,.98.436A24.854,24.854,0,0,0,48,6.4,24.854,24.854,0,0,0,58.016,8.5,24.854,24.854,0,0,0,68.029,6.4,24.854,24.854,0,0,0,76.344.436a1.32,1.32,0,0,1,.975-.43H87.534a30.26,30.26,0,0,1,28.419,20.01,1.32,1.32,0,0,1-.528,1.553C96.373,33.865,77.184,40.015,58,40.015ZM2.934,19.923c36.54,23.222,73.59,23.219,110.161,0A27.619,27.619,0,0,0,87.534,2.644H77.894A27.5,27.5,0,0,1,68.824,8.93a27.5,27.5,0,0,1-10.812,2.214A27.5,27.5,0,0,1,47.2,8.93,27.5,27.5,0,0,1,38.13,2.644H28.456A27.582,27.582,0,0,0,2.934,19.923Z" transform="translate(20.597 71.85)" fill="#2f3a5a"/><path d="M31.735,70.422C14.157,70.422,0,49.408,0,32.01a31.72,31.72,0,1,1,63.438,0C63.442,49.411,49.3,70.422,31.735,70.422Zm0-67.492A29.111,29.111,0,0,0,2.642,32.01c0,16.2,12.978,35.772,29.093,35.772S60.8,48.212,60.8,32.01A29.111,29.111,0,0,0,31.722,2.93Z" transform="translate(46.878 2.484)" fill="#2f3a5a"/><path d="M0,59.05V89.524c28.744-10.5,52.784-7.5,71.107,7.21V13.446C52.784-1.266,28.744-4.266,0,6.237V38.324" transform="translate(7.484 88.203)" fill="#dbe2eb"/><path d="M72.428,99.316a1.32,1.32,0,0,1-.827-.291c-18.463-14.826-41.959-17.185-69.826-7A1.32,1.32,0,0,1,0,90.785V60.312a1.32,1.32,0,1,1,2.641,0v28.6c26.6-9.262,50.178-7.051,68.469,6.4V15.347C52.911,1.023,29.885-1.3,2.641,8.428V39.591a1.32,1.32,0,1,1-2.641,0V7.5A1.32,1.32,0,0,1,.866,6.257c28.4-10.376,53.424-7.809,72.391,7.421a1.321,1.321,0,0,1,.494,1.03V98a1.32,1.32,0,0,1-1.32,1.32Z" transform="translate(6.177 86.942)" fill="#2f3a5a"/><path d="M71.107,38.324V6.237C42.363-4.266,18.323-1.266,0,13.446V96.734c18.323-14.713,42.363-17.713,71.107-7.21V59.05" transform="translate(78.605 88.203)" fill="#dbe2eb"/><path d="M71.12,6.239v83.3c-2.535-.924-5.044-1.743-7.5-2.456V12.895C38.637,3.783,17.193,4.84,0,14.954V13.449C18.328-1.261,42.361-4.272,71.12,6.239Z" transform="translate(78.605 88.201)" fill="#7b99af"/><path d="M5.538,2.355V4.8L2.844,6A4.788,4.788,0,0,0,0,10.372V22.8a2.725,2.725,0,0,0,2.725,2.725H8.073a3.637,3.637,0,0,0,3.637-3.637V4.61a2.678,2.678,0,0,0-1.273-2.282l-.364-.879a2.359,2.359,0,0,0-4.534.906Z" transform="translate(144.174 121.73)" fill="#ffe763"/><path d="M9.4,28.175H4.049A4.051,4.051,0,0,1,0,24.129V11.7A6.111,6.111,0,0,1,3.629,6.118L5.541,5.27V3.686a3.676,3.676,0,0,1,7.075-1.41l.219.528a4.027,4.027,0,0,1,1.521,3.137V23.216a4.965,4.965,0,0,1-4.96,4.96ZM9.214,2.645a1.019,1.019,0,0,0-.528.143,1.038,1.038,0,0,0-.512.9V6.126a1.321,1.321,0,0,1-.792,1.207l-2.7,1.2A3.47,3.47,0,0,0,2.625,11.7V24.129a1.408,1.408,0,0,0,1.408,1.4H9.378A2.319,2.319,0,0,0,11.7,23.218V5.944a1.368,1.368,0,0,0-.644-1.157,1.32,1.32,0,0,1-.528-.615l-.367-.879A1.022,1.022,0,0,0,9.531,2.7a1.056,1.056,0,0,0-.32-.055Z" transform="translate(142.854 120.399)" fill="#2f3a5a"/><path d="M6.164,2.359V4.8L8.858,6a4.788,4.788,0,0,1,2.852,4.373V22.8a2.725,2.725,0,0,1-2.725,2.725H3.639A3.637,3.637,0,0,1,0,21.889V4.615A2.678,2.678,0,0,1,1.273,2.333l.364-.879a2.352,2.352,0,0,1,4.527.906Z" transform="translate(1.32 121.725)" fill="#ffe763"/><path d="M10.308,28.174H4.96A4.965,4.965,0,0,1,0,23.217V5.942A4.033,4.033,0,0,1,1.519,2.8l.219-.528A3.679,3.679,0,0,1,8.815,3.679V5.263l1.912.848A6.116,6.116,0,0,1,14.351,11.7V24.128a4.051,4.051,0,0,1-4.043,4.046ZM5.142,2.646a1.056,1.056,0,0,0-.335.055,1.03,1.03,0,0,0-.629.589l-.364.877a1.32,1.32,0,0,1-.528.621,1.368,1.368,0,0,0-.644,1.157V23.219A2.319,2.319,0,0,0,4.96,25.535H10.3a1.408,1.408,0,0,0,1.4-1.4V11.7A3.468,3.468,0,0,0,9.653,8.53l-2.7-1.2a1.32,1.32,0,0,1-.792-1.207V3.684a1.041,1.041,0,0,0-.512-.9,1.03,1.03,0,0,0-.51-.14Z" transform="translate(0 120.4)" fill="#2f3a5a"/><path d="M1.32,99.314A1.32,1.32,0,0,1,0,97.994V14.707a1.321,1.321,0,0,1,.494-1.03C19.461-1.553,44.487-4.118,72.885,6.256A1.32,1.32,0,0,1,73.751,7.5V39.584a1.32,1.32,0,0,1-2.641,0V8.421C43.869-1.316,20.84,1.027,2.641,15.341V95.308C20.924,81.853,44.5,79.645,71.11,88.907V60.31a1.32,1.32,0,1,1,2.641,0V90.784a1.32,1.32,0,0,1-1.775,1.241c-27.867-10.183-51.364-7.828-69.826,7a1.32,1.32,0,0,1-.829.29Z" transform="translate(77.284 86.943)" fill="#2f3a5a"/><path d="M2.615,3.122,1.294,3,0,2.736c.137-.663.246-1.186.372-1.7a1.32,1.32,0,1,1,2.564.629C2.813,2.147,2.715,2.636,2.615,3.122Z" transform="translate(39.759 23.98)" fill="#2f3a5a"/><path d="M1.322,20.71A1.32,1.32,0,0,1,.11,18.862,40.142,40.142,0,0,1,16.709.206a1.32,1.32,0,1,1,1.32,2.284,37.478,37.478,0,0,0-15.5,17.43,1.32,1.32,0,0,1-1.207.79Z" transform="translate(42.079)" fill="#2f3a5a"/><path d="M30.38,6.247A1.342,1.342,0,0,1,30,6.191,74.546,74.546,0,0,0,1.459,2.877,1.327,1.327,0,0,1,1.2.236,77.282,77.282,0,0,1,30.76,3.669a1.32,1.32,0,0,1-.38,2.585Z" transform="translate(110.274 178.159)" fill="#2f3a5a"/><path d="M1.324,3.187A1.32,1.32,0,0,1,.96.6C1.192.53,1.422.454,1.655.38c.367-.121.734-.24,1.112-.333a1.32,1.32,0,1,1,.639,2.562c-.314.079-.621.182-.93.283-.264.085-.528.172-.792.248a1.373,1.373,0,0,1-.359.048Z" transform="translate(100.595 179.769)" fill="#2f3a5a"/></g><g transform="translate(18.16 99.993)"><path d="M0,0V.109A4.845,4.845,0,0,0,.271,1.853a4.52,4.52,0,0,0,.866,1.491,4.051,4.051,0,0,0,1.326,1,3.7,3.7,0,0,0,3.153,0,4.051,4.051,0,0,0,1.326-1,4.52,4.52,0,0,0,.866-1.491A4.845,4.845,0,0,0,8.077.109V0Z" transform="translate(20.581 60.578)" fill="#84879c"/><path d="M4.47,5.5a4.119,4.119,0,0,1-1.71-.374,4.467,4.467,0,0,1-1.45-1.066,4.976,4.976,0,0,1-.969-1.6A5.347,5.347,0,0,1,0,.582V.473A.5.5,0,0,1,.126.138.411.411,0,0,1,.43,0H8.505a.411.411,0,0,1,.3.138.5.5,0,0,1,.126.334V.582A5.178,5.178,0,0,1,7.627,4.057,4.274,4.274,0,0,1,4.47,5.5ZM.877.948A4.124,4.124,0,0,0,2.046,3.5,3.433,3.433,0,0,0,4.469,4.528,3.433,3.433,0,0,0,6.893,3.5,4.124,4.124,0,0,0,8.062.948Z" transform="translate(20.151 60.103)" fill="#2f3a5a"/><path d="M25.017,42.42a22.068,22.068,0,0,1,5.04-11.147A19.933,19.933,0,0,0,34.03,22.2a20.894,20.894,0,0,0-.78-10.037,18.145,18.145,0,0,0-3.717-6.623A16.1,16.1,0,0,0,23.6,1.3C11.433-3.62,0,6.147,0,18.856A19.913,19.913,0,0,0,4.238,31.273,22.116,22.116,0,0,1,9.28,42.421Z" transform="translate(7.473 8.437)" fill="#ffe763"/><path d="M26.448,31.311A22.047,22.047,0,0,0,21.411,42.45H19.657a23.508,23.508,0,0,1,4.53-8.519,19.948,19.948,0,0,0,3.968-9.075,20.908,20.908,0,0,0-.779-10.034A18.145,18.145,0,0,0,23.658,8.2a16.1,16.1,0,0,0-5.934-4.241A15.894,15.894,0,0,0,8.435,2.919,16.742,16.742,0,0,0,0,7.323,17.3,17.3,0,0,1,9.091.67a15.83,15.83,0,0,1,10.9.658,16.081,16.081,0,0,1,5.931,4.241,18.128,18.128,0,0,1,3.713,6.623,20.907,20.907,0,0,1,.782,10.039,19.948,19.948,0,0,1-3.971,9.08Z" transform="translate(11.083 8.404)" fill="#faba59"/><path d="M.43,4.822a.411.411,0,0,1-.3-.138A.5.5,0,0,1,0,4.349V.473A.5.5,0,0,1,.126.138.411.411,0,0,1,.43,0a.411.411,0,0,1,.3.138A.5.5,0,0,1,.86.473V4.349a.5.5,0,0,1-.126.334A.411.411,0,0,1,.43,4.822Z" transform="translate(24.124 0)" fill="#2f3a5a"/><path d="M2.2,4.318a.4.4,0,0,1-.215-.063.454.454,0,0,1-.157-.173L.067.726A.5.5,0,0,1,.006.549.519.519,0,0,1,.012.36.5.5,0,0,1,.086.189.446.446,0,0,1,.215.063.4.4,0,0,1,.378,0,.392.392,0,0,1,.55.019.418.418,0,0,1,.7.107.467.467,0,0,1,.811.254l1.76,3.359a.514.514,0,0,1,0,.473.454.454,0,0,1-.157.173.4.4,0,0,1-.215.063Z" transform="translate(12.029 3.589)" fill="#2f3a5a"/><path d="M3.476,2.881a.4.4,0,0,1-.215-.063L.212.881a.47.47,0,0,1-.2-.287A.514.514,0,0,1,.058.236a.438.438,0,0,1,.26-.22A.4.4,0,0,1,.642.062L3.691,2a.462.462,0,0,1,.182.229.517.517,0,0,1,.018.3.478.478,0,0,1-.153.253.405.405,0,0,1-.262.1Z" transform="translate(3.212 13.374)" fill="#2f3a5a"/><path d="M3.954.946H.43a.411.411,0,0,1-.3-.138A.5.5,0,0,1,0,.473.5.5,0,0,1,.126.138.411.411,0,0,1,.43,0H3.954a.411.411,0,0,1,.3.138.5.5,0,0,1,.126.334.5.5,0,0,1-.126.334A.411.411,0,0,1,3.954.946Z" transform="translate(0 26.688)" fill="#2f3a5a"/><path d="M.43,2.88a.405.405,0,0,1-.262-.1A.478.478,0,0,1,.015,2.53a.517.517,0,0,1,.018-.3A.462.462,0,0,1,.215,2L3.266.062A.4.4,0,0,1,3.591.017a.438.438,0,0,1,.26.22.514.514,0,0,1,.043.357.47.47,0,0,1-.2.287L.643,2.815A.4.4,0,0,1,.43,2.88Z" transform="translate(3.278 38.047)" fill="#2f3a5a"/><path d="M.43,4.317a.4.4,0,0,1-.215-.063A.454.454,0,0,1,.058,4.08a.514.514,0,0,1,0-.473L1.818.254A.467.467,0,0,1,1.927.107.418.418,0,0,1,2.079.019.392.392,0,0,1,2.251,0a.4.4,0,0,1,.163.06.446.446,0,0,1,.129.126A.5.5,0,0,1,2.616.36a.519.519,0,0,1,.007.189.5.5,0,0,1-.061.177L.8,4.084a.453.453,0,0,1-.158.171.4.4,0,0,1-.214.062Z" transform="translate(34.584 3.59)" fill="#2f3a5a"/><path d="M.43,2.88a.405.405,0,0,1-.262-.1A.478.478,0,0,1,.015,2.53a.517.517,0,0,1,.018-.3A.462.462,0,0,1,.215,2L3.264.062A.4.4,0,0,1,3.589.017a.438.438,0,0,1,.26.22.514.514,0,0,1,.043.357.47.47,0,0,1-.2.287L.645,2.817A.4.4,0,0,1,.43,2.88Z" transform="translate(42.125 13.375)" fill="#2f3a5a"/><path d="M3.954.946H.43a.411.411,0,0,1-.3-.138A.5.5,0,0,1,0,.473.5.5,0,0,1,.126.138.411.411,0,0,1,.43,0H3.954a.411.411,0,0,1,.3.138.5.5,0,0,1,.126.334.5.5,0,0,1-.126.334A.411.411,0,0,1,3.954.946Z" transform="translate(44.855 26.688)" fill="#2f3a5a"/><path d="M3.476,2.88a.4.4,0,0,1-.215-.063L.212.881a.47.47,0,0,1-.2-.287A.514.514,0,0,1,.058.236a.438.438,0,0,1,.26-.22A.4.4,0,0,1,.642.062L3.691,2a.462.462,0,0,1,.182.229.517.517,0,0,1,.018.3.478.478,0,0,1-.153.253A.405.405,0,0,1,3.476,2.88Z" transform="translate(42.059 38.047)" fill="#2f3a5a"/><path d="M15.742,0V7.6a3.046,3.046,0,0,1-3,2.869H2.465a2.266,2.266,0,0,1-.977-.219A2.469,2.469,0,0,1,.67,9.626a2.76,2.76,0,0,1-.523-.935A2.952,2.952,0,0,1,0,7.6V0Z" transform="translate(16.748 50.858)" fill="#84879c"/><path d="M13.176,11.42H2.894a2.645,2.645,0,0,1-1.145-.25,2.881,2.881,0,0,1-.959-.731A3.221,3.221,0,0,1,.174,9.348a3.447,3.447,0,0,1-.169-1.27V.473A.5.5,0,0,1,.131.138.411.411,0,0,1,.435,0H16.171a.411.411,0,0,1,.3.138A.5.5,0,0,1,16.6.473v7.6a3.809,3.809,0,0,1-1.109,2.42,3.16,3.16,0,0,1-2.316.922ZM.864.946V8.078a2.426,2.426,0,0,0,.105.907,2.271,2.271,0,0,0,.429.783,2.029,2.029,0,0,0,.68.526,1.859,1.859,0,0,0,.815.18H13.176a2.589,2.589,0,0,0,2.566-2.4V.946Z" transform="translate(16.318 50.385)" fill="#2f3a5a"/><path d="M.452,2.974a.407.407,0,0,1-.31-.122A.494.494,0,0,1,0,2.525a.5.5,0,0,1,.111-.341.416.416,0,0,1,.3-.155L18.379,0a.408.408,0,0,1,.314.105.492.492,0,0,1,.157.317.506.506,0,0,1-.094.346.42.42,0,0,1-.289.172L.5,2.971Z" transform="translate(15.118 52.522)" fill="#2f3a5a"/><path d="M.452,2.956a.407.407,0,0,1-.31-.122A.494.494,0,0,1,0,2.507a.5.5,0,0,1,.111-.341.416.416,0,0,1,.3-.155L18.247,0a.409.409,0,0,1,.314.106.493.493,0,0,1,.157.317.506.506,0,0,1-.094.346.42.42,0,0,1-.289.172L.5,2.954Z" transform="translate(15.25 56.424)" fill="#2f3a5a"/><path d="M25.451,43.378H9.713a.407.407,0,0,1-.285-.115.488.488,0,0,1-.145-.294,21.61,21.61,0,0,0-4.939-10.9A19.943,19.943,0,0,1,.777,25.025,21.183,21.183,0,0,1,.13,16.994,20.648,20.648,0,0,1,2.518,9.371,18.728,18.728,0,0,1,7.525,3.483,16.962,16.962,0,0,1,15.612.134a16.415,16.415,0,0,1,8.571,1.2A16.627,16.627,0,0,1,30.267,5.7,18.73,18.73,0,0,1,34.09,12.5a21.49,21.49,0,0,1,.785,10.28,20.5,20.5,0,0,1-4.062,9.3,21.59,21.59,0,0,0-4.937,10.9.488.488,0,0,1-.144.29.408.408,0,0,1-.281.116Zm-15.367-.946h15a22.721,22.721,0,0,1,5.088-10.985,19.529,19.529,0,0,0,3.863-8.858,20.465,20.465,0,0,0-.753-9.789,17.754,17.754,0,0,0-3.624-6.44,15.761,15.761,0,0,0-5.768-4.135,15.637,15.637,0,0,0-8.162-1.151,16.155,16.155,0,0,0-7.7,3.185,17.813,17.813,0,0,0-4.762,5.6A19.639,19.639,0,0,0,.987,17.11,20.148,20.148,0,0,0,1.6,24.749a18.969,18.969,0,0,0,3.393,6.7,22.732,22.732,0,0,1,5.09,10.984Z" transform="translate(7.039 7.953)" fill="#2f3a5a"/><path d="M1.046,1.891a.516.516,0,0,1-.232-.055.567.567,0,0,1-.19-.156l-.081-.1c-.106-.132-.2-.27-.3-.409L.122,1A.659.659,0,0,1,0,.546.633.633,0,0,1,.211.134.524.524,0,0,1,.622,0,.548.548,0,0,1,1,.232l.128.181c.086.119.172.238.258.352l.086.107a.644.644,0,0,1,.131.315.67.67,0,0,1-.045.343.6.6,0,0,1-.206.262.522.522,0,0,1-.3.1Z" transform="translate(13.406 36.464)" fill="#fffffe"/><path d="M1.926,12.169a.522.522,0,0,1-.3-.094.6.6,0,0,1-.206-.252,17.022,17.022,0,0,1-.8-11.4A.6.6,0,0,1,.9.068.513.513,0,0,1,1.324.027.574.574,0,0,1,1.65.322.67.67,0,0,1,1.7.783a15.7,15.7,0,0,0-.578,4.228,15.408,15.408,0,0,0,1.31,6.275.669.669,0,0,1,.055.3.66.66,0,0,1-.084.293.587.587,0,0,1-.2.212.52.52,0,0,1-.27.078Z" transform="translate(10.449 22.768)" fill="#fffffe"/><g transform="translate(11.073 11.517)"><path d="M23.477,12.913c0,7.132-5.256,12.913-11.738,12.913S0,20.045,0,12.913,5.256,0,11.738,0,23.477,5.781,23.477,12.913Z" transform="translate(1.629 2.923)" fill="#fe7058"/><path d="M18.643,21.5a13.97,13.97,0,0,0,1.729-9.255,13.167,13.167,0,0,0-4.466-8.071A10.979,10.979,0,0,0,7.639,1.615,11.418,11.418,0,0,0,0,5.935,12.423,12.423,0,0,1,3.37,2.166,11.157,11.157,0,0,1,7.83.2a10.7,10.7,0,0,1,4.8.163,11.309,11.309,0,0,1,4.342,2.267,12.638,12.638,0,0,1,3.152,3.991,13.856,13.856,0,0,1,1.434,5.046,14.136,14.136,0,0,1-.524,5.255A13.283,13.283,0,0,1,18.643,21.5Z" transform="translate(3.488 2.928)" fill="#fe7058"/><path d="M8,17.6a7.492,7.492,0,0,1-4.444-1.483A8.673,8.673,0,0,1,.609,12.166,9.62,9.62,0,0,1,.154,7.082,9.1,9.1,0,0,1,2.343,2.577,7.8,7.8,0,0,1,6.439.169a7.325,7.325,0,0,1,4.621.5,8.216,8.216,0,0,1,3.59,3.241A9.437,9.437,0,0,1,16,8.8a9.275,9.275,0,0,1-2.346,6.219A7.658,7.658,0,0,1,8,17.6Z" transform="translate(5.369 7.037)" fill="#dbe2eb"/><path d="M14.209,8.8a9.536,9.536,0,0,1-.765,3.752A8.733,8.733,0,0,1,11.3,15.588a9.385,9.385,0,0,0,1.788-6.02,9.216,9.216,0,0,0-2.353-5.781A7.672,7.672,0,0,0,5.458,1.245,7.539,7.539,0,0,0,0,3.26,7.984,7.984,0,0,1,4.045.33a7.306,7.306,0,0,1,4.84.176,8.126,8.126,0,0,1,3.86,3.217A9.413,9.413,0,0,1,14.209,8.8Z" transform="translate(7.158 7.038)" fill="#dbe2eb"/><path d="M8.518,4.685A4.487,4.487,0,0,1,4.259,9.371,4.487,4.487,0,0,1,0,4.685,4.487,4.487,0,0,1,4.259,0,4.487,4.487,0,0,1,8.518,4.685Z" transform="translate(9.108 11.151)" fill="#fe7058"/><path d="M6.832,7.99A5.109,5.109,0,0,0,7.14,4.781,4.719,4.719,0,0,0,5.488,2.115,3.976,3.976,0,0,0,2.66,1.258,4.1,4.1,0,0,0,0,2.616,4.634,4.634,0,0,1,1.143,1.042a4.12,4.12,0,0,1,1.638-.9,3.88,3.88,0,0,1,1.83-.06A4.065,4.065,0,0,1,6.3.873a4.56,4.56,0,0,1,1.226,1.5A5.025,5.025,0,0,1,8.061,4.3a5.117,5.117,0,0,1-.245,2,4.763,4.763,0,0,1-.985,1.7Z" transform="translate(9.547 11.159)" fill="#fe7058"/><path d="M.484,12.493a.455.455,0,0,1-.286-.1.533.533,0,0,1-.175-.269.583.583,0,0,1,0-.331.53.53,0,0,1,.181-.265L15.109.1a.449.449,0,0,1,.362-.088.482.482,0,0,1,.312.219.575.575,0,0,1,.08.4.54.54,0,0,1-.2.343L.761,12.4a.454.454,0,0,1-.277.1Z" transform="translate(12.883 3.875)" fill="#2f3a5a"/><path d="M4.618,3.555,0,7.11.284,3.555,4.9,0Z" transform="translate(24.391 0.266)" fill="#fe7058"/><path d="M.243,7.642a.223.223,0,0,1-.1-.022.244.244,0,0,1-.081-.064.273.273,0,0,1-.051-.094A.291.291,0,0,1,0,7.353L.285,3.8a.285.285,0,0,1,.031-.11A.259.259,0,0,1,.387,3.6L5.005.048A.228.228,0,0,1,5.134,0a.225.225,0,0,1,.132.035.257.257,0,0,1,.094.108A.289.289,0,0,1,5.385.29L5.1,3.844a.285.285,0,0,1-.031.11A.259.259,0,0,1,5,4.039L.382,7.594a.227.227,0,0,1-.139.048ZM.758,3.968.529,6.831l4.1-3.157L4.86.811Z" transform="translate(24.148)" fill="#2f3a5a"/><path d="M4.618,0,0,3.555l3.14.9L7.758.9Z" transform="translate(24.391 3.821)" fill="#fe7058"/><g transform="translate(0 2.657)"><path d="M3.382,4.983a.218.218,0,0,1-.06-.009l-3.14-.9A.239.239,0,0,1,.065,4,.277.277,0,0,1,0,3.868.291.291,0,0,1,.018,3.72.263.263,0,0,1,.1,3.6L4.721.048A.233.233,0,0,1,4.817,0a.223.223,0,0,1,.1,0L8.06.9A.239.239,0,0,1,8.177.98a.277.277,0,0,1,.061.134.291.291,0,0,1-.014.149.263.263,0,0,1-.085.117L3.521,4.935a.227.227,0,0,1-.139.048ZM.81,3.706l2.525.72,4.1-3.154L4.908.556Z" transform="translate(24.149 0.896)" fill="#2f3a5a"/><path d="M.242,4.908H.221a.236.236,0,0,1-.164-.094A.284.284,0,0,1,0,4.62,15.9,15.9,0,0,1,1,.163.269.269,0,0,1,1.057.077.241.241,0,0,1,1.136.02a.222.222,0,0,1,.185,0A.242.242,0,0,1,1.4.079a.27.27,0,0,1,.052.087.291.291,0,0,1,0,.2,15.32,15.32,0,0,0-.967,4.3.277.277,0,0,1-.077.173.23.23,0,0,1-.163.07Z" transform="translate(0 7.289)" fill="#2f3a5a"/><path d="M.242.929A.224.224,0,0,1,.129.9.248.248,0,0,1,.056.832.275.275,0,0,1,.011.741.291.291,0,0,1,0,.638a.286.286,0,0,1,.027-.1C.072.448.118.361.165.272L.238.134A.247.247,0,0,1,.385.009.223.223,0,0,1,.569.036.265.265,0,0,1,.682.2.29.29,0,0,1,.658.4L.582.544C.538.625.5.7.456.788a.257.257,0,0,1-.089.1A.225.225,0,0,1,.242.929Z" transform="translate(1.481 5.749)" fill="#2f3a5a"/><path d="M11.98,26.358a11.221,11.221,0,0,1-6.656-2.221A12.99,12.99,0,0,1,.912,18.222,14.408,14.408,0,0,1,.23,10.608,13.634,13.634,0,0,1,3.509,3.86,11.687,11.687,0,0,1,9.643.253,10.972,10.972,0,0,1,16.565,1a12.306,12.306,0,0,1,5.377,4.854,14.135,14.135,0,0,1,2.019,7.322,13.893,13.893,0,0,1-3.513,9.315,11.47,11.47,0,0,1-8.467,3.865Zm0-25.826A10.768,10.768,0,0,0,5.593,2.664,12.466,12.466,0,0,0,1.359,8.34,13.827,13.827,0,0,0,.7,15.647a13.084,13.084,0,0,0,3.147,6.475,11.215,11.215,0,0,0,5.886,3.461,10.529,10.529,0,0,0,6.642-.72,11.809,11.809,0,0,0,5.159-4.658,13.564,13.564,0,0,0,1.938-7.026,13.333,13.333,0,0,0-3.372-8.938A11.008,11.008,0,0,0,11.98.533Z" transform="translate(1.387 0)" fill="#2f3a5a"/><path d="M4.5,9.9A4.216,4.216,0,0,1,2,9.068,4.88,4.88,0,0,1,.342,6.846,5.413,5.413,0,0,1,.087,3.985,5.122,5.122,0,0,1,1.318,1.45,4.391,4.391,0,0,1,3.623.1a4.122,4.122,0,0,1,2.6.282A4.623,4.623,0,0,1,8.243,2.2,5.31,5.31,0,0,1,9,4.951a5.219,5.219,0,0,1-1.32,3.5A4.309,4.309,0,0,1,4.5,9.9ZM4.5.532a3.763,3.763,0,0,0-2.232.745A4.356,4.356,0,0,0,.789,3.261,4.831,4.831,0,0,0,.561,5.814a4.572,4.572,0,0,0,1.1,2.263A3.919,3.919,0,0,0,3.717,9.286a3.679,3.679,0,0,0,2.321-.252,4.127,4.127,0,0,0,1.8-1.628,4.74,4.74,0,0,0,.677-2.455A4.658,4.658,0,0,0,7.34,1.828,3.846,3.846,0,0,0,4.5.533Z" transform="translate(8.866 8.228)" fill="#2f3a5a"/><path d="M8.24,18.13A7.718,7.718,0,0,1,3.662,16.6,8.935,8.935,0,0,1,.627,12.534,9.911,9.911,0,0,1,.158,7.3,9.378,9.378,0,0,1,2.414,2.655,8.039,8.039,0,0,1,6.633.174,7.547,7.547,0,0,1,11.394.69a8.465,8.465,0,0,1,3.7,3.339,9.723,9.723,0,0,1,1.389,5.036,9.555,9.555,0,0,1-2.417,6.408A7.889,7.889,0,0,1,8.24,18.13Zm0-17.6A7.265,7.265,0,0,0,3.93,1.971,8.411,8.411,0,0,0,1.074,5.8a9.329,9.329,0,0,0-.441,4.93A8.828,8.828,0,0,0,2.756,15.1a7.567,7.567,0,0,0,3.972,2.335,7.1,7.1,0,0,0,4.482-.486,7.968,7.968,0,0,0,3.481-3.143A9.152,9.152,0,0,0,16,9.065a8.994,8.994,0,0,0-2.275-6.031A7.426,7.426,0,0,0,8.24.533Z" transform="translate(5.127 4.114)" fill="#2f3a5a"/></g><path d="M4.648,3.258a.294.294,0,0,1-.075-.01A9.971,9.971,0,0,1,.1.6.346.346,0,0,1,.029.491.378.378,0,0,1,.019.227.354.354,0,0,1,.083.111a.318.318,0,0,1,.1-.079A.288.288,0,0,1,.423.021a.311.311,0,0,1,.1.07A9.353,9.353,0,0,0,4.721,2.576a.315.315,0,0,1,.185.139.373.373,0,0,1,.054.239.358.358,0,0,1-.1.218.3.3,0,0,1-.209.087Z" transform="translate(6.369 23.457)" fill="#fffffe"/><path d="M.567,1.069a.291.291,0,0,1-.136-.034A.321.321,0,0,1,.322.94C.258.852.2.76.137.668L.061.551A.363.363,0,0,1,.009.429.38.38,0,0,1,0,.294.369.369,0,0,1,.046.167a.336.336,0,0,1,.083-.1A.293.293,0,0,1,.362,0,.3.3,0,0,1,.478.05.328.328,0,0,1,.568.141l.08.123C.7.346.756.428.813.506A.365.365,0,0,1,.88.683.377.377,0,0,1,.851.872a.337.337,0,0,1-.116.143.294.294,0,0,1-.168.053Z" transform="translate(5.098 21.882)" fill="#fffffe"/></g></g><path d="M1.23,7.176l-.711-1a1.216,1.216,0,0,0-.292,1.7,1.236,1.236,0,0,0,1.714.29h0l.011-.008.059-.039c.056-.037.144-.094.265-.168.242-.149.615-.368,1.118-.634A34.2,34.2,0,0,1,7.983,5.35,56.008,56.008,0,0,1,26.6,2.443,62.587,62.587,0,0,1,45.935,5.359a44.074,44.074,0,0,1,5.089,1.99c.572.269,1,.492,1.286.644.142.076.246.135.314.174l.073.042.015.009h0A1.235,1.235,0,0,0,54.4,7.811a1.217,1.217,0,0,0-.41-1.679l-.64,1.043c.64-1.043.639-1.044.639-1.044l0,0-.009-.005-.015-.009-.013-.008-.1-.057c-.085-.049-.208-.118-.369-.2-.321-.173-.791-.416-1.406-.7a46.534,46.534,0,0,0-5.376-2.1A65.059,65.059,0,0,0,26.6,0,58.471,58.471,0,0,0,7.161,3.047a36.654,36.654,0,0,0-4.923,2.12c-.554.292-.974.538-1.26.715-.143.088-.253.159-.33.21l-.09.06L.532,6.17l-.008.006,0,0h0S.519,6.179,1.23,7.176Z" transform="translate(86.484 107.225) rotate(-6.807)" fill="#2f3a5a"/><path d="M1.23,7.176l-.711-1a1.216,1.216,0,0,0-.292,1.7,1.236,1.236,0,0,0,1.714.29h0l.011-.008.059-.039c.056-.037.144-.094.265-.168.242-.149.615-.368,1.118-.634A34.2,34.2,0,0,1,7.983,5.35,56.008,56.008,0,0,1,26.6,2.443,62.587,62.587,0,0,1,45.935,5.359a44.074,44.074,0,0,1,5.089,1.99c.572.269,1,.492,1.286.644.142.076.246.135.314.174l.073.042.015.009h0A1.235,1.235,0,0,0,54.4,7.811a1.217,1.217,0,0,0-.41-1.679l-.64,1.043c.64-1.043.639-1.044.639-1.044l0,0-.009-.005-.015-.009-.013-.008-.1-.057c-.085-.049-.208-.118-.369-.2-.321-.173-.791-.416-1.406-.7a46.534,46.534,0,0,0-5.376-2.1A65.059,65.059,0,0,0,26.6,0,58.471,58.471,0,0,0,7.161,3.047a36.654,36.654,0,0,0-4.923,2.12c-.554.292-.974.538-1.26.715-.143.088-.253.159-.33.21l-.09.06L.532,6.17l-.008.006,0,0h0S.519,6.179,1.23,7.176Z" transform="translate(86.484 118.216) rotate(-6.807)" fill="#2f3a5a"/><path d="M1.23,7.176l-.711-1a1.216,1.216,0,0,0-.292,1.7,1.236,1.236,0,0,0,1.714.29h0l.011-.008.059-.039c.056-.037.144-.094.265-.168.242-.149.615-.368,1.118-.634A34.2,34.2,0,0,1,7.983,5.35,56.008,56.008,0,0,1,26.6,2.443,62.587,62.587,0,0,1,45.935,5.359a44.074,44.074,0,0,1,5.089,1.99c.572.269,1,.492,1.286.644.142.076.246.135.314.174l.073.042.015.009h0A1.235,1.235,0,0,0,54.4,7.811a1.217,1.217,0,0,0-.41-1.679l-.64,1.043c.64-1.043.639-1.044.639-1.044l0,0-.009-.005-.015-.009-.013-.008-.1-.057c-.085-.049-.208-.118-.369-.2-.321-.173-.791-.416-1.406-.7a46.534,46.534,0,0,0-5.376-2.1A65.059,65.059,0,0,0,26.6,0,58.471,58.471,0,0,0,7.161,3.047a36.654,36.654,0,0,0-4.923,2.12c-.554.292-.974.538-1.26.715-.143.088-.253.159-.33.21l-.09.06L.532,6.17l-.008.006,0,0h0S.519,6.179,1.23,7.176Z" transform="translate(86.484 129.207) rotate(-6.807)" fill="#2f3a5a"/><path d="M1.23,7.176l-.711-1a1.216,1.216,0,0,0-.292,1.7,1.236,1.236,0,0,0,1.714.29h0l.011-.008.059-.039c.056-.037.144-.094.265-.168.242-.149.615-.368,1.118-.634A34.2,34.2,0,0,1,7.983,5.35,56.008,56.008,0,0,1,26.6,2.443,62.587,62.587,0,0,1,45.935,5.359a44.074,44.074,0,0,1,5.089,1.99c.572.269,1,.492,1.286.644.142.076.246.135.314.174l.073.042.015.009h0A1.235,1.235,0,0,0,54.4,7.811a1.217,1.217,0,0,0-.41-1.679l-.64,1.043c.64-1.043.639-1.044.639-1.044l0,0-.009-.005-.015-.009-.013-.008-.1-.057c-.085-.049-.208-.118-.369-.2-.321-.173-.791-.416-1.406-.7a46.534,46.534,0,0,0-5.376-2.1A65.059,65.059,0,0,0,26.6,0,58.471,58.471,0,0,0,7.161,3.047a36.654,36.654,0,0,0-4.923,2.12c-.554.292-.974.538-1.26.715-.143.088-.253.159-.33.21l-.09.06L.532,6.17l-.008.006,0,0h0S.519,6.179,1.23,7.176Z" transform="translate(86.484 140.198) rotate(-6.807)" fill="#2f3a5a"/><path d="M1.23,7.176l-.711-1a1.216,1.216,0,0,0-.292,1.7,1.236,1.236,0,0,0,1.714.29h0l.011-.008.059-.039c.056-.037.144-.094.265-.168.242-.149.615-.368,1.118-.634A34.2,34.2,0,0,1,7.983,5.35,56.008,56.008,0,0,1,26.6,2.443,62.587,62.587,0,0,1,45.935,5.359a44.074,44.074,0,0,1,5.089,1.99c.572.269,1,.492,1.286.644.142.076.246.135.314.174l.073.042.015.009h0A1.235,1.235,0,0,0,54.4,7.811a1.217,1.217,0,0,0-.41-1.679l-.64,1.043c.64-1.043.639-1.044.639-1.044l0,0-.009-.005-.015-.009-.013-.008-.1-.057c-.085-.049-.208-.118-.369-.2-.321-.173-.791-.416-1.406-.7a46.534,46.534,0,0,0-5.376-2.1A65.059,65.059,0,0,0,26.6,0,58.471,58.471,0,0,0,7.161,3.047a36.654,36.654,0,0,0-4.923,2.12c-.554.292-.974.538-1.26.715-.143.088-.253.159-.33.21l-.09.06L.532,6.17l-.008.006,0,0h0S.519,6.179,1.23,7.176Z" transform="translate(86.484 151.188) rotate(-6.807)" fill="#2f3a5a"/><path d="M1.23,7.176l-.711-1a1.216,1.216,0,0,0-.292,1.7,1.236,1.236,0,0,0,1.714.29h0l.011-.008.059-.039c.056-.037.144-.094.265-.168.242-.149.615-.368,1.118-.634A34.2,34.2,0,0,1,7.983,5.35,56.008,56.008,0,0,1,26.6,2.443,62.587,62.587,0,0,1,45.935,5.359a44.074,44.074,0,0,1,5.089,1.99c.572.269,1,.492,1.286.644.142.076.246.135.314.174l.073.042.015.009h0A1.235,1.235,0,0,0,54.4,7.811a1.217,1.217,0,0,0-.41-1.679l-.64,1.043c.64-1.043.639-1.044.639-1.044l0,0-.009-.005-.015-.009-.013-.008-.1-.057c-.085-.049-.208-.118-.369-.2-.321-.173-.791-.416-1.406-.7a46.534,46.534,0,0,0-5.376-2.1A65.059,65.059,0,0,0,26.6,0,58.471,58.471,0,0,0,7.161,3.047a36.654,36.654,0,0,0-4.923,2.12c-.554.292-.974.538-1.26.715-.143.088-.253.159-.33.21l-.09.06L.532,6.17l-.008.006,0,0h0S.519,6.179,1.23,7.176Z" transform="translate(86.484 162.179) rotate(-6.807)" fill="#2f3a5a"/></svg>