<svg xmlns="http://www.w3.org/2000/svg" width="125.729" height="186.258" viewBox="0 0 125.729 186.258"><g transform="translate(-12.949 -2.5)"><rect width="107.43" height="177.739" rx="10" transform="translate(22.097 3.807)" fill="#90b4ce"/><path d="M123.523,15.991V167.749a12.954,12.954,0,0,1-8,12,13.623,13.623,0,0,0,.575-3.895V24.093A12.972,12.972,0,0,0,103.109,11.1H21.662a13.184,13.184,0,0,0-4.992.993A13.017,13.017,0,0,1,29.086,3h81.446a12.972,12.972,0,0,1,12.991,12.991Z" transform="translate(6.005 0.807)" fill="#7b99af"/><path d="M19.984,10.986h88.953v126.2H19.984Z" transform="translate(11.353 13.695)" fill="#fffffe"/><path d="M50.79,10.99h8.443V137.185H50.79Z" transform="translate(61.068 13.701)" fill="#d9d9d8"/><path d="M50.4,63.045H37.436a4.722,4.722,0,1,0,0,9.444H50.4a4.722,4.722,0,0,0,0-9.444Z" transform="translate(31.898 97.708)" fill="#84879c"/><path d="M51.2,74.6H38.243a6.029,6.029,0,0,1,0-12.058H51.205a6.029,6.029,0,1,1,0,12.057ZM38.241,65.159a3.415,3.415,0,0,0,0,6.83H51.2a3.415,3.415,0,0,0,0-6.83Z" transform="translate(31.091 96.901)" fill="#2f3a5a"/><path d="M61.264,14.545H36.036a3.714,3.714,0,0,1-3.555-2.637L29.781,3H67.519l-2.7,8.908a3.714,3.714,0,0,1-3.555,2.637Z" transform="translate(27.164 0.807)" fill="#9297ab"/><path d="M62.075,16.659H36.847a4.992,4.992,0,0,1-4.8-3.563l-2.708-8.91A1.307,1.307,0,0,1,30.587,2.5H68.33a1.307,1.307,0,0,1,1.252,1.686l-2.7,8.908A4.992,4.992,0,0,1,62.075,16.659ZM32.354,5.114l2.19,7.222a2.392,2.392,0,0,0,2.3,1.707H62.075a2.392,2.392,0,0,0,2.3-1.707l2.19-7.222Z" transform="translate(26.353 0)" fill="#2f3a5a"/><path d="M80.009,48.949V83.616H26.826V48.949L53.419,26.136Z" transform="translate(22.395 38.144)" fill="#00d0df"/><path d="M80.819,85.729H27.633a1.307,1.307,0,0,1-1.307-1.307V49.755a1.307,1.307,0,0,1,.457-.991L53.376,25.951a1.307,1.307,0,0,1,1.7,0l26.6,22.811a1.307,1.307,0,0,1,.457.991v34.67a1.307,1.307,0,0,1-1.31,1.307ZM28.94,83.115H79.512V50.356L54.226,28.664,28.94,50.358Z" transform="translate(21.588 37.339)" fill="#2f3a5a"/><path d="M87.57,50.241H26.036a1.307,1.307,0,0,1,0-2.614H87.57a1.307,1.307,0,0,1,0,2.614Z" transform="translate(19.011 72.826)" fill="#2f3a5a"/><path d="M62.2,44.583a1.307,1.307,0,0,1-.959-.421,20.061,20.061,0,0,0-28.318-1.1,1.308,1.308,0,1,1-1.777-1.919,22.685,22.685,0,0,1,32.014,1.244,1.307,1.307,0,0,1-.959,2.193Z" transform="translate(28.695 52.665)" fill="#2f3a5a"/><path d="M52.878,45.086a1.307,1.307,0,0,1-.959-.421,11.969,11.969,0,0,0-16.893-.653,1.308,1.308,0,1,1-1.777-1.919,14.582,14.582,0,0,1,20.589.8,1.307,1.307,0,0,1-.959,2.193Z" transform="translate(32.084 57.651)" fill="#2f3a5a"/><path d="M43.368,45.106a1.307,1.307,0,0,1-.925-.384,3.691,3.691,0,0,0-5.228-.018,1.307,1.307,0,1,1-1.843-1.853,6.307,6.307,0,0,1,8.911.029,1.307,1.307,0,0,1-.925,2.23Z" transform="translate(35.564 62.166)" fill="#323c6b"/><path d="M26.1,42.591V24.922h9.436v9.384" transform="translate(21.22 36.185)" fill="#fe7058"/><path d="M26.907,44.705A1.307,1.307,0,0,1,25.6,43.4V25.729a1.307,1.307,0,0,1,1.307-1.307h9.436a1.307,1.307,0,0,1,1.307,1.307v9.384a1.307,1.307,0,1,1-2.614,0V27.036H28.214V43.4A1.307,1.307,0,0,1,26.907,44.705Z" transform="translate(20.416 35.378)" fill="#2f3a5a"/><path d="M61.358,41.059a1.307,1.307,0,0,1-1.307-1.307V13.724a1.307,1.307,0,1,1,2.614,0V39.752A1.307,1.307,0,0,1,61.358,41.059Z" transform="translate(76.014 16.004)" fill="#2f3a5a"/><path d="M26.368,88.785a1.289,1.289,0,0,1-.549-.12,22.217,22.217,0,0,1-12.87-20.077V65.755a1.307,1.307,0,1,1,2.614,0v2.833a19.6,19.6,0,0,0,11.354,17.7,1.307,1.307,0,0,1-.549,2.494Z" transform="translate(0 99.972)" fill="#2f3a5a"/><path d="M14.256,65.946a1.307,1.307,0,0,1-1.307-1.307V63.071a1.307,1.307,0,1,1,2.614,0v1.568A1.307,1.307,0,0,1,14.256,65.946Z" transform="translate(0 95.641)" fill="#2f3a5a"/><path d="M61.358,14.261a1.307,1.307,0,0,1-1.307-1.307v-2.4a1.307,1.307,0,1,1,2.614,0v2.4A1.307,1.307,0,0,1,61.358,14.261Z" transform="translate(76.014 10.893)" fill="#2f3a5a"/><path d="M59.834,34.537,28.675,61.345l-5.824-6.785L59.834,22.127,96.817,54.559l-5.824,6.785Z" transform="translate(15.98 31.674)" fill="#f26176"/><g transform="translate(20.79 2.5)"><path d="M91.8,63.459a1.307,1.307,0,0,1-.852-.316L60.64,37.07,30.333,63.143A1.307,1.307,0,0,1,28.49,63l-5.826-6.8a1.307,1.307,0,0,1,.131-1.83L59.778,21.952a1.307,1.307,0,0,1,1.725,0L98.486,54.384a1.307,1.307,0,0,1,.131,1.83l-5.826,6.8a1.307,1.307,0,0,1-.891.452ZM60.64,34.038a1.307,1.307,0,0,1,.852.316L91.658,60.309,95.791,55.5,60.64,24.673,25.49,55.5l4.132,4.812L59.788,34.365a1.307,1.307,0,0,1,.852-.327Z" transform="translate(-5.617 28.367)" fill="#2f3a5a"/><path d="M36.212,7.322H34.2a1.307,1.307,0,0,1,0-2.614h2.015a1.307,1.307,0,1,1,0,2.614Z" transform="translate(11.391 1.063)" fill="#2f3a5a"/><path d="M39.437,7.322H37.422a1.307,1.307,0,0,1,0-2.614h2.015a1.307,1.307,0,0,1,0,2.614Z" transform="translate(16.595 1.063)" fill="#2f3a5a"/><path d="M42.661,7.322H40.646a1.307,1.307,0,0,1,0-2.614h2.015a1.307,1.307,0,1,1,0,2.614Z" transform="translate(21.798 1.063)" fill="#2f3a5a"/><path d="M111.7,182.853H30.241a14.308,14.308,0,0,1-14.292-14.292V16.792A14.308,14.308,0,0,1,30.241,2.5H111.7A14.308,14.308,0,0,1,126,16.792V168.561A14.308,14.308,0,0,1,111.7,182.853ZM30.241,5.114A11.692,11.692,0,0,0,18.563,16.792V168.561a11.692,11.692,0,0,0,11.679,11.678H111.7a11.692,11.692,0,0,0,11.678-11.678V16.792A11.692,11.692,0,0,0,111.7,5.114Z" transform="translate(-15.949 -2.5)" fill="#2f3a5a"/><path d="M109.744,139.3H20.791a1.307,1.307,0,0,1-1.307-1.307V11.792a1.307,1.307,0,0,1,1.307-1.307h88.953a1.307,1.307,0,0,1,1.307,1.307v126.2A1.307,1.307,0,0,1,109.744,139.3ZM22.1,136.688h86.337V13.1H22.1Z" transform="translate(-10.244 10.386)" fill="#2f3a5a"/></g><path d="M33.017,45.026,48.7,45a1.453,1.453,0,0,1,0,2.907l-15.706.024a1.4,1.4,0,0,1-.938-.358,1.456,1.456,0,0,1,.962-2.548Z" transform="translate(30.036 68.59)" fill="#fffffe"/><path d="M31.273,47.912H30.7a1.33,1.33,0,0,1-.962-.379,1.375,1.375,0,0,1-.491-1.1A1.445,1.445,0,0,1,30.7,45h.57a1.453,1.453,0,1,1,0,2.907Z" transform="translate(26.306 68.587)" fill="#fffffe"/></g></svg>