<svg xmlns="http://www.w3.org/2000/svg" width="160.452" height="186.664" viewBox="0 0 160.452 186.664"><g transform="translate(-8262 3228)"><path d="M157.539,81.177V29.216c-22.5,2.25-24.005-18-24.005-18L78.773,0,24.012,11.213s-1.5,20.253-24.005,18V81.177s-2.25,83.067,78.767,102.571c81.017-19.5,78.767-102.571,78.767-102.571Z" transform="translate(8263.45 -3226.542)" fill="#90b4ce"/><path d="M80.223,186.663a1.459,1.459,0,0,1-.341-.041C37.434,176.4,17.966,148.647,9.112,127.164A119.755,119.755,0,0,1,0,82.6V30.682a1.458,1.458,0,0,1,1.6-1.458c6.634.665,11.976-.652,15.872-3.911A20.457,20.457,0,0,0,24.01,12.56a1.458,1.458,0,0,1,1.167-1.312L79.932.03a1.447,1.447,0,0,1,.583,0l54.761,11.212a1.458,1.458,0,0,1,1.167,1.312,20.457,20.457,0,0,0,6.533,12.753c3.9,3.259,9.237,4.578,15.872,3.911a1.458,1.458,0,0,1,1.6,1.458V82.617a119.86,119.86,0,0,1-9.117,44.547c-8.855,21.485-28.322,49.243-70.771,59.461a1.458,1.458,0,0,1-.341.038ZM2.915,32.251V82.635a119.144,119.144,0,0,0,8.934,43.509C24.322,156.33,47.324,175.69,80.223,183.7c32.938-8.021,55.954-27.416,68.417-57.654a118.914,118.914,0,0,0,8.9-43.376V32.251c-6.73.389-12.264-1.2-16.459-4.726a22.855,22.855,0,0,1-7.4-13.637L80.223,2.946,26.778,13.884a22.855,22.855,0,0,1-7.4,13.637c-4.191,3.528-9.723,5.12-16.459,4.731Z" transform="translate(8262 -3228)" fill="#2f3a5a"/><path d="M65.989,155.7C-1.113,138.537-.016,68.94,0,68.235V26.683a23.584,23.584,0,0,0,13.35-5.371A23.584,23.584,0,0,0,21.1,9.183L65.989,0l44.888,9.187a23.579,23.579,0,0,0,21.1,17.5V68.239C132.051,71.11,132.869,138.622,65.989,155.7Z" transform="translate(8276.234 -3212.55)" fill="#dbe2eb"/><path d="M67.447,158.614a1.442,1.442,0,0,1-.362-.045C-1.079,141.138-.017,70.369,0,69.656V28.142a1.458,1.458,0,0,1,1.312-1.458,22.215,22.215,0,0,0,12.546-5.056,22.214,22.214,0,0,0,7.288-11.4,1.458,1.458,0,0,1,1.107-1.021L67.155.03a1.447,1.447,0,0,1,.583,0l44.888,9.187a1.458,1.458,0,0,1,1.107,1.021,22.21,22.21,0,0,0,19.833,16.451,1.458,1.458,0,0,1,1.313,1.458V69.693c.069,2.879.914,71.514-67.083,88.876a1.446,1.446,0,0,1-.35.045ZM2.923,29.438V69.688c-.017.729-.945,68.962,64.529,85.956,65.411-16.943,64.595-83.108,64.529-85.921V29.432A24.854,24.854,0,0,1,111.2,11.9L67.447,2.946,23.7,11.9a24.86,24.86,0,0,1-7.779,11.858,24.86,24.86,0,0,1-13,5.675Z" transform="translate(8274.776 -3214.009)" fill="#2f3a5a"/><path d="M21.987,12.218c1.926-1.926.976-6-2.123-9.1S12.692-.93,10.765,1c-1.441,1.441-1.27,4.083.2,6.619A43.711,43.711,0,0,1,0,18.13c.048,2.895,1.91,4.314,4.855,4.855A37.9,37.9,0,0,1,15.343,12c2.545,1.485,5.2,1.66,6.644.214Z" transform="translate(8354.046 -3172.897)" fill="#faba59"/><path d="M6.312,25.95a1.432,1.432,0,0,1-.262-.025C1.12,25.021.038,22.02,0,19.654a1.458,1.458,0,0,1,.583-1.19C5.952,14.432,6.9,13.652,10.693,8.949c-1.372-2.917-1.2-5.776.5-7.481A5.644,5.644,0,0,1,16.666.254,12.228,12.228,0,0,1,22.353,3.59c3.725,3.725,4.656,8.627,2.123,11.16-1.716,1.714-4.594,1.875-7.521.483A35.185,35.185,0,0,0,7.5,25.326a1.458,1.458,0,0,1-1.19.624ZM2.975,20.321c.172,1.008.779,1.982,2.711,2.532,3.682-5.162,4.763-6.224,10.208-10.491a1.458,1.458,0,0,1,1.635-.111c1.976,1.155,3.981,1.337,4.878.437,1.167-1.167.576-4.338-2.123-7.036A9.435,9.435,0,0,0,15.995,3.1a3.022,3.022,0,0,0-2.747.437c-.888.888-.71,2.886.437,4.856a1.458,1.458,0,0,1-.122,1.644A43.812,43.812,0,0,1,2.975,20.321Z" transform="translate(8352.589 -3174.406)" fill="#2f3a5a"/><g transform="translate(8352.589 -3130.861)"><path d="M21.987,10.767c1.926,1.926.976,6-2.123,9.1s-7.172,4.05-9.1,2.123c-1.441-1.441-1.27-4.083.2-6.619A43.711,43.711,0,0,0,0,4.855C.048,1.96,1.91.541,4.855,0A37.9,37.9,0,0,0,15.343,10.981c2.545-1.485,5.2-1.66,6.644-.214Z" transform="translate(1.457 1.457)" fill="#faba59"/><path d="M6.312,0a1.432,1.432,0,0,0-.262.025C1.12.929.038,3.93,0,6.3a1.458,1.458,0,0,0,.583,1.19C5.952,11.518,6.9,12.3,10.693,17c-1.372,2.917-1.2,5.776.5,7.481A5.644,5.644,0,0,0,16.666,25.7a12.228,12.228,0,0,0,5.687-3.335c3.725-3.725,4.656-8.627,2.123-11.16-1.716-1.714-4.594-1.875-7.521-.483A35.185,35.185,0,0,1,7.5.624,1.458,1.458,0,0,0,6.312,0ZM2.975,5.629c.172-1.008.779-1.982,2.711-2.532C9.368,8.26,10.449,9.322,15.894,13.589a1.458,1.458,0,0,0,1.635.111c1.976-1.155,3.981-1.337,4.878-.437,1.167,1.167.576,4.338-2.123,7.036a9.435,9.435,0,0,1-4.289,2.556,3.022,3.022,0,0,1-2.747-.437c-.888-.888-.71-2.886.437-4.856a1.458,1.458,0,0,0-.122-1.644A43.812,43.812,0,0,0,2.975,5.629Z" transform="translate(0 0)" fill="#2f3a5a"/></g><g transform="translate(11479.064 5201.709) rotate(-90)"><path d="M21.987,12.218c1.926-1.926.976-6-2.123-9.1S12.692-.93,10.765,1c-1.441,1.441-1.27,4.083.2,6.619A43.711,43.711,0,0,1,0,18.13c.048,2.895,1.91,4.314,4.855,4.855A37.9,37.9,0,0,1,15.343,12c2.545,1.485,5.2,1.66,6.644.214Z" transform="translate(8354.046 -3172.897)" fill="#faba59"/><path d="M6.312,25.95a1.432,1.432,0,0,1-.262-.025C1.12,25.021.038,22.02,0,19.654a1.458,1.458,0,0,1,.583-1.19C5.952,14.432,6.9,13.652,10.693,8.949c-1.372-2.917-1.2-5.776.5-7.481A5.644,5.644,0,0,1,16.666.254,12.228,12.228,0,0,1,22.353,3.59c3.725,3.725,4.656,8.627,2.123,11.16-1.716,1.714-4.594,1.875-7.521.483A35.185,35.185,0,0,0,7.5,25.326a1.458,1.458,0,0,1-1.19.624ZM2.975,20.321c.172,1.008.779,1.982,2.711,2.532,3.682-5.162,4.763-6.224,10.208-10.491a1.458,1.458,0,0,1,1.635-.111c1.976,1.155,3.981,1.337,4.878.437,1.167-1.167.576-4.338-2.123-7.036A9.435,9.435,0,0,0,15.995,3.1a3.022,3.022,0,0,0-2.747.437c-.888.888-.71,2.886.437,4.856a1.458,1.458,0,0,1-.122,1.644A43.812,43.812,0,0,1,2.975,20.321Z" transform="translate(8352.589 -3174.406)" fill="#2f3a5a"/></g><g transform="translate(8330.608 -3128.437) rotate(90)"><path d="M21.987,10.767c1.926,1.926.976,6-2.123,9.1s-7.172,4.05-9.1,2.123c-1.441-1.441-1.27-4.083.2-6.619A43.711,43.711,0,0,0,0,4.855C.048,1.96,1.91.541,4.855,0A37.9,37.9,0,0,0,15.343,10.981c2.545-1.485,5.2-1.66,6.644-.214Z" transform="translate(1.457 1.457)" fill="#faba59"/><path d="M6.312,0a1.432,1.432,0,0,0-.262.025C1.12.929.038,3.93,0,6.3a1.458,1.458,0,0,0,.583,1.19C5.952,11.518,6.9,12.3,10.693,17c-1.372,2.917-1.2,5.776.5,7.481A5.644,5.644,0,0,0,16.666,25.7a12.228,12.228,0,0,0,5.687-3.335c3.725-3.725,4.656-8.627,2.123-11.16-1.716-1.714-4.594-1.875-7.521-.483A35.185,35.185,0,0,1,7.5.624,1.458,1.458,0,0,0,6.312,0ZM2.975,5.629c.172-1.008.779-1.982,2.711-2.532C9.368,8.26,10.449,9.322,15.894,13.589a1.458,1.458,0,0,0,1.635.111c1.976-1.155,3.981-1.337,4.878-.437,1.167,1.167.576,4.338-2.123,7.036a9.435,9.435,0,0,1-4.289,2.556,3.022,3.022,0,0,1-2.747-.437c-.888-.888-.71-2.886.437-4.856a1.458,1.458,0,0,0-.122-1.644A43.812,43.812,0,0,0,2.975,5.629Z" transform="translate(0 0)" fill="#2f3a5a"/></g><path d="M30.979,61.958a31.014,31.014,0,1,1,21.9-9.086,30.979,30.979,0,0,1-21.9,9.086Z" transform="translate(8311.244 -3169.065)" fill="#2f3a5a"/><path d="M54.246,27.123A27.123,27.123,0,1,1,27.123,0,27.123,27.123,0,0,1,54.246,27.123Z" transform="translate(8315.101 -3165.215)" fill="#ffe763"/><path d="M49.716,23.266A27.127,27.127,0,0,1,0,38.28,27.127,27.127,0,0,0,36.534,0,27.087,27.087,0,0,1,49.716,23.266Z" transform="translate(8319.631 -3161.357)" fill="#d9c554"/><g transform="translate(4663.309 4977.488) rotate(-45)"><path d="M21.987,12.218c1.926-1.926.976-6-2.123-9.1S12.692-.93,10.765,1c-1.441,1.441-1.27,4.083.2,6.619A43.711,43.711,0,0,1,0,18.13c.048,2.895,1.91,4.314,4.855,4.855A37.9,37.9,0,0,1,15.343,12c2.545,1.485,5.2,1.66,6.644.214Z" transform="translate(8354.046 -3172.897)" fill="#faba59"/><path d="M6.312,25.95a1.432,1.432,0,0,1-.262-.025C1.12,25.021.038,22.02,0,19.654a1.458,1.458,0,0,1,.583-1.19C5.952,14.432,6.9,13.652,10.693,8.949c-1.372-2.917-1.2-5.776.5-7.481A5.644,5.644,0,0,1,16.666.254,12.228,12.228,0,0,1,22.353,3.59c3.725,3.725,4.656,8.627,2.123,11.16-1.716,1.714-4.594,1.875-7.521.483A35.185,35.185,0,0,0,7.5,25.326a1.458,1.458,0,0,1-1.19.624ZM2.975,20.321c.172,1.008.779,1.982,2.711,2.532,3.682-5.162,4.763-6.224,10.208-10.491a1.458,1.458,0,0,1,1.635-.111c1.976,1.155,3.981,1.337,4.878.437,1.167-1.167.576-4.338-2.123-7.036A9.435,9.435,0,0,0,15.995,3.1a3.022,3.022,0,0,0-2.747.437c-.888.888-.71,2.886.437,4.856a1.458,1.458,0,0,1-.122,1.644A43.812,43.812,0,0,1,2.975,20.321Z" transform="translate(8352.589 -3174.406)" fill="#2f3a5a"/></g><g transform="translate(8343.187 -3123.781) rotate(45)"><path d="M21.987,10.767c1.926,1.926.976,6-2.123,9.1s-7.172,4.05-9.1,2.123c-1.441-1.441-1.27-4.083.2-6.619A43.711,43.711,0,0,0,0,4.855C.048,1.96,1.91.541,4.855,0A37.9,37.9,0,0,0,15.343,10.981c2.545-1.485,5.2-1.66,6.644-.214Z" transform="translate(1.457 1.457)" fill="#faba59"/><path d="M6.312,0a1.432,1.432,0,0,0-.262.025C1.12.929.038,3.93,0,6.3a1.458,1.458,0,0,0,.583,1.19C5.951,11.518,6.9,12.3,10.692,17c-1.372,2.917-1.2,5.776.5,7.481A5.644,5.644,0,0,0,16.666,25.7a12.228,12.228,0,0,0,5.687-3.335c3.724-3.724,4.656-8.627,2.123-11.16-1.716-1.713-4.594-1.875-7.52-.483A35.184,35.184,0,0,1,7.5.624,1.458,1.458,0,0,0,6.312,0ZM2.975,5.629c.172-1.008.779-1.982,2.711-2.532C9.368,8.26,10.449,9.321,15.894,13.588a1.458,1.458,0,0,0,1.635.111c1.976-1.155,3.981-1.337,4.878-.437,1.167,1.167.576,4.338-2.123,7.036a9.435,9.435,0,0,1-4.289,2.556,3.022,3.022,0,0,1-2.747-.437c-.888-.888-.71-2.886.437-4.856a1.458,1.458,0,0,0-.122-1.643A43.811,43.811,0,0,0,2.975,5.629Z" transform="translate(0 0)" fill="#2f3a5a"/></g><g transform="translate(226.478 -6818.594) rotate(45)"><path d="M21.987,12.218c1.926-1.926.976-6-2.123-9.1S12.692-.93,10.765,1c-1.441,1.441-1.27,4.083.2,6.619A43.711,43.711,0,0,1,0,18.13c.048,2.895,1.91,4.314,4.855,4.855A37.9,37.9,0,0,1,15.343,12c2.545,1.485,5.2,1.66,6.644.214Z" transform="translate(8354.046 -3172.897)" fill="#faba59"/><path d="M6.312,25.95a1.432,1.432,0,0,1-.262-.025C1.12,25.021.038,22.02,0,19.654a1.458,1.458,0,0,1,.583-1.19C5.952,14.432,6.9,13.652,10.693,8.949c-1.372-2.917-1.2-5.776.5-7.481A5.644,5.644,0,0,1,16.666.254,12.228,12.228,0,0,1,22.353,3.59c3.725,3.725,4.656,8.627,2.123,11.16-1.716,1.714-4.594,1.875-7.521.483A35.185,35.185,0,0,0,7.5,25.326a1.458,1.458,0,0,1-1.19.624ZM2.975,20.321c.172,1.008.779,1.982,2.711,2.532,3.682-5.162,4.763-6.224,10.208-10.491a1.458,1.458,0,0,1,1.635-.111c1.976,1.155,3.981,1.337,4.878.437,1.167-1.167.576-4.338-2.123-7.036A9.435,9.435,0,0,0,15.995,3.1a3.022,3.022,0,0,0-2.747.437c-.888.888-.71,2.886.437,4.856a1.458,1.458,0,0,1-.122,1.644A43.812,43.812,0,0,1,2.975,20.321Z" transform="translate(8352.589 -3174.406)" fill="#2f3a5a"/></g><g transform="translate(8327.178 -3138.716) rotate(135)"><path d="M21.987,10.766c1.926,1.926.975,6-2.123,9.1s-7.172,4.05-9.1,2.123c-1.441-1.441-1.27-4.083.2-6.619A43.708,43.708,0,0,0,0,4.855C.048,1.96,1.911.541,4.855,0A37.893,37.893,0,0,0,15.343,10.981c2.545-1.485,5.2-1.66,6.644-.214Z" transform="translate(1.457 1.457)" fill="#faba59"/><path d="M6.312,0A1.432,1.432,0,0,0,6.05.025C1.121.929.038,3.93,0,6.3a1.458,1.458,0,0,0,.583,1.19C5.952,11.518,6.9,12.3,10.692,17c-1.372,2.917-1.2,5.776.5,7.481a5.643,5.643,0,0,0,5.471,1.213,12.228,12.228,0,0,0,5.687-3.335c3.724-3.724,4.656-8.627,2.123-11.16-1.716-1.713-4.594-1.875-7.52-.483A35.182,35.182,0,0,1,7.5.624,1.458,1.458,0,0,0,6.312,0ZM2.975,5.629c.172-1.008.779-1.982,2.711-2.532C9.368,8.26,10.449,9.322,15.894,13.588a1.458,1.458,0,0,0,1.635.111c1.976-1.155,3.981-1.337,4.878-.438,1.167,1.167.576,4.338-2.123,7.036a9.435,9.435,0,0,1-4.289,2.556,3.021,3.021,0,0,1-2.747-.437c-.888-.888-.71-2.886.438-4.856a1.458,1.458,0,0,0-.122-1.643A43.809,43.809,0,0,0,2.975,5.629Z" transform="translate(0 0)" fill="#2f3a5a"/></g><circle cx="6" cy="6" r="6" transform="translate(8347 -3157)" fill="#2f3a5a"/><circle cx="3" cy="3" r="3" transform="translate(8350 -3154)" fill="#f26176"/><g transform="translate(3 25)"><circle cx="6" cy="6" r="6" transform="translate(8347 -3157)" fill="#2f3a5a"/><circle cx="3" cy="3" r="3" transform="translate(8350 -3154)" fill="#f26176"/></g><g transform="translate(-20)"><circle cx="6" cy="6" r="6" transform="translate(8347 -3157)" fill="#2f3a5a"/><circle cx="3" cy="3" r="3" transform="translate(8350 -3154)" fill="#f26176"/></g><g transform="translate(-24 25)"><circle cx="6" cy="6" r="6" transform="translate(8347 -3157)" fill="#2f3a5a"/><circle cx="3" cy="3" r="3" transform="translate(8350 -3154)" fill="#f26176"/></g><g transform="translate(-11.139 11.861)"><circle cx="7" cy="7" r="7" transform="translate(8347.139 -3156.861)" fill="#2f3a5a"/><circle cx="4" cy="4" r="4" transform="translate(8350.139 -3153.861)" fill="#f26176"/></g></g></svg>