<svg xmlns="http://www.w3.org/2000/svg" width="360" height="640"><g data-name="Group 1055" fill="none" stroke="rgba(2,2,2,0.04)"><path data-name="Line 2" d="M45 0v60"/><path data-name="Line 3" d="M0 15h60"/><path data-name="Line 4" d="M15 0v60"/><path data-name="Line 5" d="M0 45h60"/></g><g data-name="Group 1056" fill="none" stroke="rgba(2,2,2,0.04)"><path data-name="Line 2" d="M105 0v60"/><path data-name="Line 3" d="M60 15h60"/><path data-name="Line 4" d="M75 0v60"/><path data-name="Line 5" d="M60 45h60"/></g><g data-name="Group 1057" fill="none" stroke="rgba(2,2,2,0.04)"><path data-name="Line 2" d="M165 0v60"/><path data-name="Line 3" d="M120 15h60"/><path data-name="Line 4" d="M135 0v60"/><path data-name="Line 5" d="M120 45h60"/></g><g data-name="Group 1058" fill="none" stroke="rgba(2,2,2,0.04)"><path data-name="Line 2" d="M225 0v60"/><path data-name="Line 3" d="M180 15h60"/><path data-name="Line 4" d="M195 0v60"/><path data-name="Line 5" d="M180 45h60"/></g><g data-name="Group 1059" fill="none" stroke="rgba(2,2,2,0.04)"><path data-name="Line 2" d="M285 0v60"/><path data-name="Line 3" d="M240 15h60"/><path data-name="Line 4" d="M255 0v60"/><path data-name="Line 5" d="M240 45h60"/></g><g data-name="Group 1060" fill="none" stroke="rgba(2,2,2,0.04)"><path data-name="Line 2" d="M345 0v60"/><path data-name="Line 3" d="M300 15h60"/><path data-name="Line 4" d="M315 0v60"/><path data-name="Line 5" d="M300 45h60"/></g><g data-name="Group 1061" fill="none" stroke="rgba(2,2,2,0.04)"><path data-name="Line 2" d="M45 60v60"/><path data-name="Line 3" d="M0 75h60"/><path data-name="Line 4" d="M15 60v60"/><path data-name="Line 5" d="M0 105h60"/></g><g data-name="Group 1062" fill="none" stroke="rgba(2,2,2,0.04)"><path data-name="Line 2" d="M105 60v60"/><path data-name="Line 3" d="M60 75h60"/><path data-name="Line 4" d="M75 60v60"/><path data-name="Line 5" d="M60 105h60"/></g><g data-name="Group 1063" fill="none" stroke="rgba(2,2,2,0.04)"><path data-name="Line 2" d="M165 60v60"/><path data-name="Line 3" d="M120 75h60"/><path data-name="Line 4" d="M135 60v60"/><path data-name="Line 5" d="M120 105h60"/></g><g data-name="Group 1064" fill="none" stroke="rgba(2,2,2,0.04)"><path data-name="Line 2" d="M225 60v60"/><path data-name="Line 3" d="M180 75h60"/><path data-name="Line 4" d="M195 60v60"/><path data-name="Line 5" d="M180 105h60"/></g><g data-name="Group 1065" fill="none" stroke="rgba(2,2,2,0.04)"><path data-name="Line 2" d="M285 60v60"/><path data-name="Line 3" d="M240 75h60"/><path data-name="Line 4" d="M255 60v60"/><path data-name="Line 5" d="M240 105h60"/></g><g data-name="Group 1066" fill="none" stroke="rgba(2,2,2,0.04)"><path data-name="Line 2" d="M345 60v60"/><path data-name="Line 3" d="M300 75h60"/><path data-name="Line 4" d="M315 60v60"/><path data-name="Line 5" d="M300 105h60"/></g><g data-name="Group 1067" fill="none" stroke="rgba(2,2,2,0.04)"><path data-name="Line 2" d="M45 116v60"/><path data-name="Line 3" d="M0 131h60"/><path data-name="Line 4" d="M15 116v60"/><path data-name="Line 5" d="M0 161h60"/></g><g data-name="Group 1068" fill="none" stroke="rgba(2,2,2,0.04)"><path data-name="Line 2" d="M105 116v60"/><path data-name="Line 3" d="M60 131h60"/><path data-name="Line 4" d="M75 116v60"/><path data-name="Line 5" d="M60 161h60"/></g><g data-name="Group 1069" fill="none" stroke="rgba(2,2,2,0.04)"><path data-name="Line 2" d="M165 116v60"/><path data-name="Line 3" d="M120 131h60"/><path data-name="Line 4" d="M135 116v60"/><path data-name="Line 5" d="M120 161h60"/></g><g data-name="Group 1070" fill="none" stroke="rgba(2,2,2,0.04)"><path data-name="Line 2" d="M225 116v60"/><path data-name="Line 3" d="M180 131h60"/><path data-name="Line 4" d="M195 116v60"/><path data-name="Line 5" d="M180 161h60"/></g><g data-name="Group 1071" fill="none" stroke="rgba(2,2,2,0.04)"><path data-name="Line 2" d="M285 116v60"/><path data-name="Line 3" d="M240 131h60"/><path data-name="Line 4" d="M255 116v60"/><path data-name="Line 5" d="M240 161h60"/></g><g data-name="Group 1072" fill="none" stroke="rgba(2,2,2,0.04)"><path data-name="Line 2" d="M345 116v60"/><path data-name="Line 3" d="M300 131h60"/><path data-name="Line 4" d="M315 116v60"/><path data-name="Line 5" d="M300 161h60"/></g><g data-name="Group 1073" fill="none" stroke="rgba(2,2,2,0.04)"><path data-name="Line 2" d="M45 174v60"/><path data-name="Line 3" d="M0 189h60"/><path data-name="Line 4" d="M15 174v60"/><path data-name="Line 5" d="M0 219h60"/></g><g data-name="Group 1074" fill="none" stroke="rgba(2,2,2,0.04)"><path data-name="Line 2" d="M105 174v60"/><path data-name="Line 3" d="M60 189h60"/><path data-name="Line 4" d="M75 174v60"/><path data-name="Line 5" d="M60 219h60"/></g><g data-name="Group 1075" fill="none" stroke="rgba(2,2,2,0.04)"><path data-name="Line 2" d="M165 174v60"/><path data-name="Line 3" d="M120 189h60"/><path data-name="Line 4" d="M135 174v60"/><path data-name="Line 5" d="M120 219h60"/></g><g data-name="Group 1076" fill="none" stroke="rgba(2,2,2,0.04)"><path data-name="Line 2" d="M225 174v60"/><path data-name="Line 3" d="M180 189h60"/><path data-name="Line 4" d="M195 174v60"/><path data-name="Line 5" d="M180 219h60"/></g><g data-name="Group 1077" fill="none" stroke="rgba(2,2,2,0.04)"><path data-name="Line 2" d="M285 174v60"/><path data-name="Line 3" d="M240 189h60"/><path data-name="Line 4" d="M255 174v60"/><path data-name="Line 5" d="M240 219h60"/></g><g data-name="Group 1078" fill="none" stroke="rgba(2,2,2,0.04)"><path data-name="Line 2" d="M345 174v60"/><path data-name="Line 3" d="M300 189h60"/><path data-name="Line 4" d="M315 174v60"/><path data-name="Line 5" d="M300 219h60"/></g><g data-name="Group 1079" fill="none" stroke="rgba(2,2,2,0.04)"><path data-name="Line 2" d="M45 232v60"/><path data-name="Line 3" d="M0 247h60"/><path data-name="Line 4" d="M15 232v60"/><path data-name="Line 5" d="M0 277h60"/></g><g data-name="Group 1080" fill="none" stroke="rgba(2,2,2,0.04)"><path data-name="Line 2" d="M105 232v60"/><path data-name="Line 3" d="M60 247h60"/><path data-name="Line 4" d="M75 232v60"/><path data-name="Line 5" d="M60 277h60"/></g><g data-name="Group 1081" fill="none" stroke="rgba(2,2,2,0.04)"><path data-name="Line 2" d="M165 232v60"/><path data-name="Line 3" d="M120 247h60"/><path data-name="Line 4" d="M135 232v60"/><path data-name="Line 5" d="M120 277h60"/></g><g data-name="Group 1082" fill="none" stroke="rgba(2,2,2,0.04)"><path data-name="Line 2" d="M225 232v60"/><path data-name="Line 3" d="M180 247h60"/><path data-name="Line 4" d="M195 232v60"/><path data-name="Line 5" d="M180 277h60"/></g><g data-name="Group 1083" fill="none" stroke="rgba(2,2,2,0.04)"><path data-name="Line 2" d="M285 232v60"/><path data-name="Line 3" d="M240 247h60"/><path data-name="Line 4" d="M255 232v60"/><path data-name="Line 5" d="M240 277h60"/></g><g data-name="Group 1084" fill="none" stroke="rgba(2,2,2,0.04)"><path data-name="Line 2" d="M345 232v60"/><path data-name="Line 3" d="M300 247h60"/><path data-name="Line 4" d="M315 232v60"/><path data-name="Line 5" d="M300 277h60"/></g><g data-name="Group 1085" fill="none" stroke="rgba(2,2,2,0.04)"><path data-name="Line 2" d="M45 290v60"/><path data-name="Line 3" d="M0 305h60"/><path data-name="Line 4" d="M15 290v60"/><path data-name="Line 5" d="M0 335h60"/></g><g data-name="Group 1086" fill="none" stroke="rgba(2,2,2,0.04)"><path data-name="Line 2" d="M105 290v60"/><path data-name="Line 3" d="M60 305h60"/><path data-name="Line 4" d="M75 290v60"/><path data-name="Line 5" d="M60 335h60"/></g><g data-name="Group 1087" fill="none" stroke="rgba(2,2,2,0.04)"><path data-name="Line 2" d="M165 290v60"/><path data-name="Line 3" d="M120 305h60"/><path data-name="Line 4" d="M135 290v60"/><path data-name="Line 5" d="M120 335h60"/></g><g data-name="Group 1088" fill="none" stroke="rgba(2,2,2,0.04)"><path data-name="Line 2" d="M225 290v60"/><path data-name="Line 3" d="M180 305h60"/><path data-name="Line 4" d="M195 290v60"/><path data-name="Line 5" d="M180 335h60"/></g><g data-name="Group 1089" fill="none" stroke="rgba(2,2,2,0.04)"><path data-name="Line 2" d="M285 290v60"/><path data-name="Line 3" d="M240 305h60"/><path data-name="Line 4" d="M255 290v60"/><path data-name="Line 5" d="M240 335h60"/></g><g data-name="Group 1090" fill="none" stroke="rgba(2,2,2,0.04)"><path data-name="Line 2" d="M345 290v60"/><path data-name="Line 3" d="M300 305h60"/><path data-name="Line 4" d="M315 290v60"/><path data-name="Line 5" d="M300 335h60"/></g><g data-name="Group 1091" fill="none" stroke="rgba(2,2,2,0.04)"><path data-name="Line 2" d="M45 348v60"/><path data-name="Line 3" d="M0 363h60"/><path data-name="Line 4" d="M15 348v60"/><path data-name="Line 5" d="M0 393h60"/></g><g data-name="Group 1092" fill="none" stroke="rgba(2,2,2,0.04)"><path data-name="Line 2" d="M105 348v60"/><path data-name="Line 3" d="M60 363h60"/><path data-name="Line 4" d="M75 348v60"/><path data-name="Line 5" d="M60 393h60"/></g><g data-name="Group 1093" fill="none" stroke="rgba(2,2,2,0.04)"><path data-name="Line 2" d="M165 348v60"/><path data-name="Line 3" d="M120 363h60"/><path data-name="Line 4" d="M135 348v60"/><path data-name="Line 5" d="M120 393h60"/></g><g data-name="Group 1094" fill="none" stroke="rgba(2,2,2,0.04)"><path data-name="Line 2" d="M225 348v60"/><path data-name="Line 3" d="M180 363h60"/><path data-name="Line 4" d="M195 348v60"/><path data-name="Line 5" d="M180 393h60"/></g><g data-name="Group 1095" fill="none" stroke="rgba(2,2,2,0.04)"><path data-name="Line 2" d="M285 348v60"/><path data-name="Line 3" d="M240 363h60"/><path data-name="Line 4" d="M255 348v60"/><path data-name="Line 5" d="M240 393h60"/></g><g data-name="Group 1096" fill="none" stroke="rgba(2,2,2,0.04)"><path data-name="Line 2" d="M345 348v60"/><path data-name="Line 3" d="M300 363h60"/><path data-name="Line 4" d="M315 348v60"/><path data-name="Line 5" d="M300 393h60"/></g><g data-name="Group 1097" fill="none" stroke="rgba(2,2,2,0.04)"><path data-name="Line 2" d="M45 406v60"/><path data-name="Line 3" d="M0 421h60"/><path data-name="Line 4" d="M15 406v60"/><path data-name="Line 5" d="M0 451h60"/></g><g data-name="Group 1098" fill="none" stroke="rgba(2,2,2,0.04)"><path data-name="Line 2" d="M105 406v60"/><path data-name="Line 3" d="M60 421h60"/><path data-name="Line 4" d="M75 406v60"/><path data-name="Line 5" d="M60 451h60"/></g><g data-name="Group 1099" fill="none" stroke="rgba(2,2,2,0.04)"><path data-name="Line 2" d="M165 406v60"/><path data-name="Line 3" d="M120 421h60"/><path data-name="Line 4" d="M135 406v60"/><path data-name="Line 5" d="M120 451h60"/></g><g data-name="Group 1100" fill="none" stroke="rgba(2,2,2,0.04)"><path data-name="Line 2" d="M225 406v60"/><path data-name="Line 3" d="M180 421h60"/><path data-name="Line 4" d="M195 406v60"/><path data-name="Line 5" d="M180 451h60"/></g><g data-name="Group 1101" fill="none" stroke="rgba(2,2,2,0.04)"><path data-name="Line 2" d="M285 406v60"/><path data-name="Line 3" d="M240 421h60"/><path data-name="Line 4" d="M255 406v60"/><path data-name="Line 5" d="M240 451h60"/></g><g data-name="Group 1102" fill="none" stroke="rgba(2,2,2,0.04)"><path data-name="Line 2" d="M345 406v60"/><path data-name="Line 3" d="M300 421h60"/><path data-name="Line 4" d="M315 406v60"/><path data-name="Line 5" d="M300 451h60"/></g><g data-name="Group 1103" fill="none" stroke="rgba(2,2,2,0.04)"><path data-name="Line 2" d="M45 464v60"/><path data-name="Line 3" d="M0 479h60"/><path data-name="Line 4" d="M15 464v60"/><path data-name="Line 5" d="M0 509h60"/></g><g data-name="Group 1104" fill="none" stroke="rgba(2,2,2,0.04)"><path data-name="Line 2" d="M105 464v60"/><path data-name="Line 3" d="M60 479h60"/><path data-name="Line 4" d="M75 464v60"/><path data-name="Line 5" d="M60 509h60"/></g><g data-name="Group 1105" fill="none" stroke="rgba(2,2,2,0.04)"><path data-name="Line 2" d="M165 464v60"/><path data-name="Line 3" d="M120 479h60"/><path data-name="Line 4" d="M135 464v60"/><path data-name="Line 5" d="M120 509h60"/></g><g data-name="Group 1106" fill="none" stroke="rgba(2,2,2,0.04)"><path data-name="Line 2" d="M225 464v60"/><path data-name="Line 3" d="M180 479h60"/><path data-name="Line 4" d="M195 464v60"/><path data-name="Line 5" d="M180 509h60"/></g><g data-name="Group 1107" fill="none" stroke="rgba(2,2,2,0.04)"><path data-name="Line 2" d="M285 464v60"/><path data-name="Line 3" d="M240 479h60"/><path data-name="Line 4" d="M255 464v60"/><path data-name="Line 5" d="M240 509h60"/></g><g data-name="Group 1108" fill="none" stroke="rgba(2,2,2,0.04)"><path data-name="Line 2" d="M345 464v60"/><path data-name="Line 3" d="M300 479h60"/><path data-name="Line 4" d="M315 464v60"/><path data-name="Line 5" d="M300 509h60"/></g><g data-name="Group 1109" fill="none" stroke="rgba(2,2,2,0.04)"><path data-name="Line 2" d="M45 520v60"/><path data-name="Line 3" d="M0 535h60"/><path data-name="Line 4" d="M15 520v60"/><path data-name="Line 5" d="M0 565h60"/></g><g data-name="Group 1110" fill="none" stroke="rgba(2,2,2,0.04)"><path data-name="Line 2" d="M105 520v60"/><path data-name="Line 3" d="M60 535h60"/><path data-name="Line 4" d="M75 520v60"/><path data-name="Line 5" d="M60 565h60"/></g><g data-name="Group 1111" fill="none" stroke="rgba(2,2,2,0.04)"><path data-name="Line 2" d="M165 520v60"/><path data-name="Line 3" d="M120 535h60"/><path data-name="Line 4" d="M135 520v60"/><path data-name="Line 5" d="M120 565h60"/></g><g data-name="Group 1112" fill="none" stroke="rgba(2,2,2,0.04)"><path data-name="Line 2" d="M225 520v60"/><path data-name="Line 3" d="M180 535h60"/><path data-name="Line 4" d="M195 520v60"/><path data-name="Line 5" d="M180 565h60"/></g><g data-name="Group 1113" fill="none" stroke="rgba(2,2,2,0.04)"><path data-name="Line 2" d="M285 520v60"/><path data-name="Line 3" d="M240 535h60"/><path data-name="Line 4" d="M255 520v60"/><path data-name="Line 5" d="M240 565h60"/></g><g data-name="Group 1114" fill="none" stroke="rgba(2,2,2,0.04)"><path data-name="Line 2" d="M345 520v60"/><path data-name="Line 3" d="M300 535h60"/><path data-name="Line 4" d="M315 520v60"/><path data-name="Line 5" d="M300 565h60"/></g><g data-name="Group 1115" fill="none" stroke="rgba(2,2,2,0.04)"><path data-name="Line 2" d="M45 580v60"/><path data-name="Line 3" d="M0 595h60"/><path data-name="Line 4" d="M15 580v60"/><path data-name="Line 5" d="M0 625h60"/></g><g data-name="Group 1116" fill="none" stroke="rgba(2,2,2,0.04)"><path data-name="Line 2" d="M105 580v60"/><path data-name="Line 3" d="M60 595h60"/><path data-name="Line 4" d="M75 580v60"/><path data-name="Line 5" d="M60 625h60"/></g><g data-name="Group 1117" fill="none" stroke="rgba(2,2,2,0.04)"><path data-name="Line 2" d="M165 580v60"/><path data-name="Line 3" d="M120 595h60"/><path data-name="Line 4" d="M135 580v60"/><path data-name="Line 5" d="M120 625h60"/></g><g data-name="Group 1118" fill="none" stroke="rgba(2,2,2,0.04)"><path data-name="Line 2" d="M225 580v60"/><path data-name="Line 3" d="M180 595h60"/><path data-name="Line 4" d="M195 580v60"/><path data-name="Line 5" d="M180 625h60"/></g><g data-name="Group 1119" fill="none" stroke="rgba(2,2,2,0.04)"><path data-name="Line 2" d="M285 580v60"/><path data-name="Line 3" d="M240 595h60"/><path data-name="Line 4" d="M255 580v60"/><path data-name="Line 5" d="M240 625h60"/></g><g data-name="Group 1120" fill="none" stroke="rgba(2,2,2,0.04)"><path data-name="Line 2" d="M345 580v60"/><path data-name="Line 3" d="M300 595h60"/><path data-name="Line 4" d="M315 580v60"/><path data-name="Line 5" d="M300 625h60"/></g></svg>