<svg xmlns="http://www.w3.org/2000/svg" width="173.427" height="211.41" viewBox="0 0 173.427 211.41"><g transform="translate(-209.33 -145.67)"><g transform="translate(209.33 145.67)"><path d="M382.757,232.384a86.727,86.727,0,0,1-33.672,68.6l-.492.343v0a12.427,12.427,0,0,0-1.611,1.2,12.724,12.724,0,0,0-4.353,9.579v5.2a10.716,10.716,0,0,1-2.822,7.255,10.737,10.737,0,0,1,0,14.51,10.743,10.743,0,0,1-7.923,18h-8.971a10.753,10.753,0,0,1-8.968-4.827,10.753,10.753,0,0,1-8.968,4.827H260.137a10.745,10.745,0,0,1-7.923-18,10.734,10.734,0,0,1,.036-14.54,10.722,10.722,0,0,1-2.792-7.222v-5.2a12.724,12.724,0,0,0-4.353-9.579,12.425,12.425,0,0,0-1.611-1.2l-.468-.328-.024-.018a86.747,86.747,0,1,1,139.756-68.6Z" transform="translate(-209.33 -145.67)" fill="#fff"/></g><g transform="translate(215.594 151.934)"><g transform="translate(50.067 49.72)"><path d="M458.866,359.28a30.734,30.734,0,0,0-60.712-.044,110.039,110.039,0,0,1,12.183,10.377,18.993,18.993,0,1,1,36.285.169A109.2,109.2,0,0,1,458.866,359.28Z" transform="translate(-398.154 -333.333)" fill="#3da9fc"/></g><g transform="translate(40.065 175.406)"><path d="M391.529,759.124a4.483,4.483,0,0,1-4.483,4.483H369.109a4.484,4.484,0,0,1,0-8.969h17.937A4.484,4.484,0,0,1,391.529,759.124Z" transform="translate(-364.626 -754.638)" fill="#3da9fc"/></g><g transform="translate(75.936 175.406)"><path d="M529.7,759.124a4.483,4.483,0,0,1-4.483,4.483H489.351a4.484,4.484,0,0,1,0-8.969h35.871A4.484,4.484,0,0,1,529.7,759.124Z" transform="translate(-484.868 -754.638)" fill="#3da9fc"/></g><g transform="translate(102.836 189.914)"><path d="M592.976,807.753a4.484,4.484,0,0,1-4.483,4.486h-8.968a4.484,4.484,0,1,1,0-8.969h8.968A4.483,4.483,0,0,1,592.976,807.753Z" transform="translate(-575.039 -803.27)" fill="#3da9fc"/></g><path d="M387.389,222.5a80.459,80.459,0,1,0-125.82,88.26,19.142,19.142,0,0,1,2.395,1.786,18.941,18.941,0,0,1,6.49,14.295v5.2a4.484,4.484,0,0,0,4.483,4.486h71.679a4.484,4.484,0,0,0,4.483-4.486v-5.2a18.941,18.941,0,0,1,6.49-14.295,19.138,19.138,0,0,1,2.395-1.786,80.548,80.548,0,0,0,27.405-88.26Zm-76.61,74.335h-.005a49.721,49.721,0,1,1,0-99.441h.005a49.721,49.721,0,1,1,0,99.441Z" transform="translate(-230.326 -166.667)" fill="#3da9fc"/><g transform="translate(40.062 189.914)"><path d="M418.426,807.753a4.486,4.486,0,0,1-4.486,4.486H369.1a4.484,4.484,0,0,1,0-8.969H413.94A4.485,4.485,0,0,1,418.426,807.753Z" transform="translate(-364.618 -803.27)" fill="#3da9fc"/></g></g></g></svg>